<svg width="250" height="42" viewBox="0 0 250 42" fill="none" xmlns="http://www.w3.org/2000/svg">
<path opacity="0.5" d="M39.9903 2.27023L30.2035 38.8334C30.1538 38.9993 29.9547 39.0491 29.8386 38.9329L23.2864 32.3771L28.1964 14.0541C28.2462 13.8881 28.0969 13.7387 27.931 13.7885L9.61815 18.7012L3.09917 12.1786C2.98306 12.0624 3.03282 11.8633 3.1987 11.8135L39.7249 2.00467C39.8908 1.97148 40.04 2.12085 39.9903 2.27023Z" fill="#00B37E"/>
<path opacity="0.5" d="M23.2861 32.3768L20.7648 41.8371C20.715 42.0031 20.516 42.0529 20.3998 41.9367L0.0632818 21.6054C-0.0528324 21.4892 -0.00306943 21.29 0.162808 21.2403L9.61782 18.7009L23.2861 32.3768Z" fill="#00B37E"/>
<path d="M28.1956 14.0538L23.2856 32.3768L9.61732 18.7009L27.9302 13.7882C28.096 13.7384 28.2453 13.8878 28.1956 14.0538Z" fill="#00B37E"/>
<path d="M67.481 11.2266V29H63.8311V11.2266H67.481ZM79.0532 15.792H82.2393V28.5605C82.2393 29.765 81.9707 30.7863 81.4336 31.6245C80.9046 32.4709 80.1641 33.1097 79.2119 33.541C78.2598 33.9805 77.153 34.2002 75.8916 34.2002C75.3382 34.2002 74.7523 34.127 74.1338 33.9805C73.5234 33.834 72.9375 33.6061 72.376 33.2969C71.8226 32.9876 71.3587 32.597 70.9844 32.125L72.5347 30.0498C72.9416 30.5218 73.4136 30.888 73.9507 31.1484C74.4878 31.417 75.0819 31.5513 75.7329 31.5513C76.3677 31.5513 76.9048 31.4333 77.3442 31.1973C77.7837 30.9694 78.1214 30.6317 78.3574 30.1841C78.5934 29.7446 78.7114 29.2116 78.7114 28.585V18.8438L79.0532 15.792ZM70.1665 22.5547V22.2983C70.1665 21.2892 70.2886 20.3737 70.5327 19.5518C70.785 18.7217 71.139 18.0096 71.5947 17.4155C72.0586 16.8215 72.6201 16.3617 73.2793 16.0361C73.9385 15.7106 74.6831 15.5479 75.5132 15.5479C76.3921 15.5479 77.1286 15.7106 77.7227 16.0361C78.3167 16.3617 78.805 16.8255 79.1875 17.4277C79.57 18.0218 79.867 18.7257 80.0786 19.5396C80.2983 20.3452 80.4692 21.2282 80.5913 22.1885V22.75C80.4692 23.6696 80.2861 24.5241 80.042 25.3135C79.7979 26.1029 79.4764 26.7946 79.0776 27.3887C78.6789 27.9746 78.1825 28.4303 77.5884 28.7559C77.0024 29.0814 76.3026 29.2441 75.4888 29.2441C74.675 29.2441 73.9385 29.0773 73.2793 28.7437C72.6283 28.41 72.0708 27.9421 71.6069 27.3398C71.1431 26.7376 70.785 26.0296 70.5327 25.2158C70.2886 24.402 70.1665 23.515 70.1665 22.5547ZM73.6821 22.2983V22.5547C73.6821 23.0999 73.735 23.6086 73.8408 24.0806C73.9466 24.5526 74.1094 24.9717 74.3291 25.3379C74.557 25.696 74.8377 25.9767 75.1714 26.1802C75.5132 26.3755 75.916 26.4731 76.3799 26.4731C77.0228 26.4731 77.5477 26.3389 77.9546 26.0703C78.3615 25.7936 78.6667 25.4152 78.8701 24.9351C79.0736 24.4549 79.1916 23.9015 79.2241 23.2749V21.6758C79.2078 21.1631 79.1387 20.7033 79.0166 20.2964C78.8945 19.8813 78.7236 19.5273 78.5039 19.2344C78.2842 18.9414 77.9993 18.7135 77.6494 18.5508C77.2995 18.388 76.8844 18.3066 76.4043 18.3066C75.9404 18.3066 75.5376 18.4124 75.1958 18.624C74.8621 18.8275 74.5814 19.1082 74.3535 19.4663C74.1338 19.8244 73.967 20.2476 73.853 20.7358C73.7391 21.216 73.6821 21.7368 73.6821 22.2983ZM88.416 18.6118V29H84.9004V15.792H88.1963L88.416 18.6118ZM87.9033 21.9321H86.9512C86.9512 20.9556 87.0773 20.0767 87.3296 19.2954C87.5819 18.506 87.9359 17.8346 88.3916 17.2812C88.8473 16.7197 89.3885 16.2925 90.0151 15.9995C90.6499 15.6984 91.3579 15.5479 92.1392 15.5479C92.7576 15.5479 93.3232 15.6374 93.8359 15.8164C94.3486 15.9954 94.7881 16.2803 95.1543 16.6709C95.5286 17.0615 95.8135 17.5783 96.0088 18.2212C96.2122 18.8641 96.314 19.6494 96.314 20.5771V29H92.7739V20.5649C92.7739 19.979 92.6925 19.5233 92.5298 19.1978C92.367 18.8722 92.127 18.6444 91.8096 18.5142C91.5003 18.3758 91.1178 18.3066 90.6621 18.3066C90.1901 18.3066 89.7791 18.4002 89.4292 18.5874C89.0874 18.7746 88.8026 19.035 88.5747 19.3687C88.355 19.6942 88.1882 20.0767 88.0742 20.5161C87.9603 20.9556 87.9033 21.4276 87.9033 21.9321ZM102.698 15.792V29H99.1704V15.792H102.698ZM98.9507 12.3496C98.9507 11.8369 99.1297 11.4137 99.4878 11.0801C99.8459 10.7464 100.326 10.5796 100.928 10.5796C101.522 10.5796 101.998 10.7464 102.356 11.0801C102.723 11.4137 102.906 11.8369 102.906 12.3496C102.906 12.8623 102.723 13.2855 102.356 13.6191C101.998 13.9528 101.522 14.1196 100.928 14.1196C100.326 14.1196 99.8459 13.9528 99.4878 13.6191C99.1297 13.2855 98.9507 12.8623 98.9507 12.3496ZM112.073 15.792V18.2822H104.383V15.792H112.073ZM106.287 12.5327H109.803V25.0205C109.803 25.403 109.852 25.696 109.949 25.8994C110.055 26.1029 110.21 26.2453 110.413 26.3267C110.617 26.3999 110.873 26.4365 111.182 26.4365C111.402 26.4365 111.597 26.4284 111.768 26.4121C111.947 26.3877 112.098 26.3633 112.22 26.3389L112.232 28.9268C111.931 29.0244 111.605 29.1017 111.255 29.1587C110.905 29.2157 110.519 29.2441 110.096 29.2441C109.323 29.2441 108.647 29.118 108.069 28.8657C107.5 28.6053 107.06 28.1903 106.751 27.6206C106.442 27.0509 106.287 26.3022 106.287 25.3745V12.5327ZM120.154 29.2441C119.129 29.2441 118.209 29.0814 117.396 28.7559C116.582 28.4222 115.89 27.9624 115.32 27.3765C114.759 26.7905 114.327 26.111 114.026 25.3379C113.725 24.5566 113.575 23.7266 113.575 22.8477V22.3594C113.575 21.3584 113.717 20.4429 114.002 19.6128C114.287 18.7827 114.694 18.0625 115.223 17.4521C115.76 16.8418 116.411 16.3739 117.176 16.0483C117.941 15.7147 118.803 15.5479 119.764 15.5479C120.7 15.5479 121.53 15.7025 122.254 16.0117C122.978 16.321 123.584 16.7604 124.073 17.3301C124.569 17.8997 124.944 18.5833 125.196 19.3809C125.448 20.1702 125.574 21.0492 125.574 22.0176V23.4824H115.076V21.1387H122.12V20.8701C122.12 20.3818 122.03 19.9465 121.851 19.564C121.68 19.1733 121.42 18.8641 121.07 18.6362C120.72 18.4084 120.272 18.2944 119.727 18.2944C119.263 18.2944 118.864 18.3962 118.531 18.5996C118.197 18.8031 117.924 19.0879 117.713 19.4541C117.509 19.8203 117.355 20.2516 117.249 20.748C117.151 21.2363 117.103 21.7734 117.103 22.3594V22.8477C117.103 23.3766 117.176 23.8649 117.322 24.3125C117.477 24.7601 117.693 25.1466 117.969 25.4722C118.254 25.7977 118.596 26.05 118.995 26.229C119.402 26.408 119.861 26.4976 120.374 26.4976C121.009 26.4976 121.599 26.3755 122.144 26.1313C122.697 25.8791 123.174 25.5007 123.572 24.9961L125.281 26.8516C125.005 27.2503 124.626 27.6328 124.146 27.999C123.674 28.3652 123.104 28.6663 122.437 28.9023C121.77 29.1302 121.009 29.2441 120.154 29.2441ZM140.943 22.6646H136.414V19.8081H140.943C141.643 19.8081 142.212 19.6942 142.652 19.4663C143.091 19.2303 143.413 18.9048 143.616 18.4897C143.82 18.0747 143.921 17.6068 143.921 17.0859C143.921 16.557 143.82 16.0646 143.616 15.6089C143.413 15.1532 143.091 14.7869 142.652 14.5103C142.212 14.2336 141.643 14.0952 140.943 14.0952H137.684V29H134.021V11.2266H140.943C142.334 11.2266 143.527 11.4788 144.52 11.9834C145.521 12.4798 146.285 13.1675 146.814 14.0464C147.343 14.9253 147.608 15.9303 147.608 17.0615C147.608 18.209 147.343 19.2018 146.814 20.04C146.285 20.8783 145.521 21.5252 144.52 21.981C143.527 22.4367 142.334 22.6646 140.943 22.6646ZM149.183 22.5303V22.2739C149.183 21.3055 149.321 20.4144 149.598 19.6006C149.874 18.7786 150.277 18.0666 150.806 17.4644C151.335 16.8621 151.986 16.3942 152.759 16.0605C153.532 15.7188 154.419 15.5479 155.42 15.5479C156.421 15.5479 157.312 15.7188 158.094 16.0605C158.875 16.3942 159.53 16.8621 160.059 17.4644C160.596 18.0666 161.003 18.7786 161.28 19.6006C161.556 20.4144 161.695 21.3055 161.695 22.2739V22.5303C161.695 23.4906 161.556 24.3817 161.28 25.2036C161.003 26.0174 160.596 26.7295 160.059 27.3398C159.53 27.9421 158.879 28.41 158.106 28.7437C157.333 29.0773 156.446 29.2441 155.445 29.2441C154.444 29.2441 153.553 29.0773 152.771 28.7437C151.998 28.41 151.343 27.9421 150.806 27.3398C150.277 26.7295 149.874 26.0174 149.598 25.2036C149.321 24.3817 149.183 23.4906 149.183 22.5303ZM152.698 22.2739V22.5303C152.698 23.0837 152.747 23.6004 152.845 24.0806C152.942 24.5607 153.097 24.9839 153.309 25.3501C153.528 25.7082 153.813 25.9889 154.163 26.1924C154.513 26.3958 154.94 26.4976 155.445 26.4976C155.933 26.4976 156.352 26.3958 156.702 26.1924C157.052 25.9889 157.333 25.7082 157.544 25.3501C157.756 24.9839 157.911 24.5607 158.008 24.0806C158.114 23.6004 158.167 23.0837 158.167 22.5303V22.2739C158.167 21.7368 158.114 21.2323 158.008 20.7603C157.911 20.2801 157.752 19.8569 157.532 19.4907C157.321 19.1164 157.04 18.8234 156.69 18.6118C156.34 18.4002 155.917 18.2944 155.42 18.2944C154.924 18.2944 154.501 18.4002 154.151 18.6118C153.809 18.8234 153.528 19.1164 153.309 19.4907C153.097 19.8569 152.942 20.2801 152.845 20.7603C152.747 21.2323 152.698 21.7368 152.698 22.2739ZM167.371 18.5264V29H163.843V15.792H167.151L167.371 18.5264ZM166.883 21.9321H165.906C165.906 21.0125 166.016 20.1662 166.236 19.3931C166.464 18.6118 166.793 17.9364 167.225 17.3667C167.664 16.7889 168.205 16.3413 168.848 16.0239C169.491 15.7065 170.236 15.5479 171.082 15.5479C171.668 15.5479 172.205 15.6374 172.693 15.8164C173.182 15.9873 173.601 16.2599 173.951 16.6343C174.309 17.0005 174.585 17.4806 174.781 18.0747C174.976 18.6606 175.074 19.3646 175.074 20.1865V29H171.558V20.5771C171.558 19.9749 171.477 19.5111 171.314 19.1855C171.151 18.86 170.919 18.6322 170.618 18.502C170.325 18.3717 169.971 18.3066 169.556 18.3066C169.1 18.3066 168.702 18.4002 168.36 18.5874C168.026 18.7746 167.75 19.035 167.53 19.3687C167.31 19.6942 167.147 20.0767 167.042 20.5161C166.936 20.9556 166.883 21.4276 166.883 21.9321ZM174.744 21.5293L173.487 21.688C173.487 20.8254 173.593 20.0238 173.804 19.2832C174.024 18.5426 174.345 17.8916 174.769 17.3301C175.2 16.7686 175.733 16.3332 176.368 16.0239C177.002 15.7065 177.735 15.5479 178.565 15.5479C179.2 15.5479 179.778 15.6414 180.298 15.8286C180.819 16.0076 181.263 16.2965 181.629 16.6953C182.003 17.0859 182.288 17.5986 182.483 18.2334C182.687 18.8682 182.789 19.6453 182.789 20.5649V29H179.261V20.5649C179.261 19.9546 179.179 19.4907 179.017 19.1733C178.862 18.8478 178.634 18.624 178.333 18.502C178.04 18.3717 177.69 18.3066 177.283 18.3066C176.86 18.3066 176.49 18.3921 176.172 18.563C175.855 18.7257 175.59 18.9536 175.379 19.2466C175.167 19.5396 175.009 19.8813 174.903 20.272C174.797 20.6545 174.744 21.0736 174.744 21.5293ZM184.949 22.5303V22.2739C184.949 21.3055 185.088 20.4144 185.364 19.6006C185.641 18.7786 186.044 18.0666 186.573 17.4644C187.102 16.8621 187.753 16.3942 188.526 16.0605C189.299 15.7188 190.186 15.5479 191.187 15.5479C192.188 15.5479 193.079 15.7188 193.86 16.0605C194.642 16.3942 195.297 16.8621 195.826 17.4644C196.363 18.0666 196.77 18.7786 197.046 19.6006C197.323 20.4144 197.461 21.3055 197.461 22.2739V22.5303C197.461 23.4906 197.323 24.3817 197.046 25.2036C196.77 26.0174 196.363 26.7295 195.826 27.3398C195.297 27.9421 194.646 28.41 193.873 28.7437C193.099 29.0773 192.212 29.2441 191.211 29.2441C190.21 29.2441 189.319 29.0773 188.538 28.7437C187.765 28.41 187.11 27.9421 186.573 27.3398C186.044 26.7295 185.641 26.0174 185.364 25.2036C185.088 24.3817 184.949 23.4906 184.949 22.5303ZM188.465 22.2739V22.5303C188.465 23.0837 188.514 23.6004 188.611 24.0806C188.709 24.5607 188.864 24.9839 189.075 25.3501C189.295 25.7082 189.58 25.9889 189.93 26.1924C190.28 26.3958 190.707 26.4976 191.211 26.4976C191.7 26.4976 192.119 26.3958 192.469 26.1924C192.819 25.9889 193.099 25.7082 193.311 25.3501C193.523 24.9839 193.677 24.5607 193.775 24.0806C193.881 23.6004 193.934 23.0837 193.934 22.5303V22.2739C193.934 21.7368 193.881 21.2323 193.775 20.7603C193.677 20.2801 193.519 19.8569 193.299 19.4907C193.087 19.1164 192.806 18.8234 192.457 18.6118C192.107 18.4002 191.683 18.2944 191.187 18.2944C190.691 18.2944 190.267 18.4002 189.917 18.6118C189.576 18.8234 189.295 19.1164 189.075 19.4907C188.864 19.8569 188.709 20.2801 188.611 20.7603C188.514 21.2323 188.465 21.7368 188.465 22.2739ZM207.422 26.1191V10.25H210.962V29H207.776L207.422 26.1191ZM199.073 22.5547V22.2983C199.073 21.2892 199.187 20.3737 199.415 19.5518C199.642 18.7217 199.976 18.0096 200.416 17.4155C200.855 16.8215 201.396 16.3617 202.039 16.0361C202.682 15.7106 203.414 15.5479 204.236 15.5479C205.009 15.5479 205.685 15.7106 206.263 16.0361C206.849 16.3617 207.345 16.8255 207.752 17.4277C208.167 18.0218 208.501 18.7257 208.753 19.5396C209.005 20.3452 209.188 21.2282 209.302 22.1885V22.75C209.188 23.6696 209.005 24.5241 208.753 25.3135C208.501 26.1029 208.167 26.7946 207.752 27.3887C207.345 27.9746 206.849 28.4303 206.263 28.7559C205.677 29.0814 204.993 29.2441 204.212 29.2441C203.39 29.2441 202.658 29.0773 202.015 28.7437C201.38 28.41 200.843 27.9421 200.403 27.3398C199.972 26.7376 199.642 26.0296 199.415 25.2158C199.187 24.402 199.073 23.515 199.073 22.5547ZM202.588 22.2983V22.5547C202.588 23.0999 202.629 23.6086 202.71 24.0806C202.8 24.5526 202.942 24.9717 203.138 25.3379C203.341 25.696 203.602 25.9767 203.919 26.1802C204.244 26.3755 204.639 26.4731 205.103 26.4731C205.705 26.4731 206.202 26.3389 206.592 26.0703C206.983 25.7936 207.28 25.4152 207.483 24.9351C207.695 24.4549 207.817 23.9015 207.85 23.2749V21.6758C207.825 21.1631 207.752 20.7033 207.63 20.2964C207.516 19.8813 207.345 19.5273 207.117 19.2344C206.897 18.9414 206.621 18.7135 206.287 18.5508C205.962 18.388 205.575 18.3066 205.127 18.3066C204.672 18.3066 204.281 18.4124 203.956 18.624C203.63 18.8275 203.366 19.1082 203.162 19.4663C202.967 19.8244 202.82 20.2476 202.723 20.7358C202.633 21.216 202.588 21.7368 202.588 22.2983ZM213.147 22.5303V22.2739C213.147 21.3055 213.286 20.4144 213.562 19.6006C213.839 18.7786 214.242 18.0666 214.771 17.4644C215.3 16.8621 215.951 16.3942 216.724 16.0605C217.497 15.7188 218.384 15.5479 219.385 15.5479C220.386 15.5479 221.277 15.7188 222.059 16.0605C222.84 16.3942 223.495 16.8621 224.024 17.4644C224.561 18.0666 224.968 18.7786 225.245 19.6006C225.521 20.4144 225.66 21.3055 225.66 22.2739V22.5303C225.66 23.4906 225.521 24.3817 225.245 25.2036C224.968 26.0174 224.561 26.7295 224.024 27.3398C223.495 27.9421 222.844 28.41 222.071 28.7437C221.298 29.0773 220.411 29.2441 219.41 29.2441C218.409 29.2441 217.518 29.0773 216.736 28.7437C215.963 28.41 215.308 27.9421 214.771 27.3398C214.242 26.7295 213.839 26.0174 213.562 25.2036C213.286 24.3817 213.147 23.4906 213.147 22.5303ZM216.663 22.2739V22.5303C216.663 23.0837 216.712 23.6004 216.81 24.0806C216.907 24.5607 217.062 24.9839 217.273 25.3501C217.493 25.7082 217.778 25.9889 218.128 26.1924C218.478 26.3958 218.905 26.4976 219.41 26.4976C219.898 26.4976 220.317 26.3958 220.667 26.1924C221.017 25.9889 221.298 25.7082 221.509 25.3501C221.721 24.9839 221.875 24.5607 221.973 24.0806C222.079 23.6004 222.132 23.0837 222.132 22.5303V22.2739C222.132 21.7368 222.079 21.2323 221.973 20.7603C221.875 20.2801 221.717 19.8569 221.497 19.4907C221.285 19.1164 221.005 18.8234 220.655 18.6118C220.305 18.4002 219.882 18.2944 219.385 18.2944C218.889 18.2944 218.466 18.4002 218.116 18.6118C217.774 18.8234 217.493 19.1164 217.273 19.4907C217.062 19.8569 216.907 20.2801 216.81 20.7603C216.712 21.2323 216.663 21.7368 216.663 22.2739ZM231.336 18.6729V29H227.82V15.792H231.128L231.336 18.6729ZM235.315 15.7065L235.254 18.9658C235.083 18.9414 234.876 18.9211 234.632 18.9048C234.396 18.8804 234.18 18.8682 233.985 18.8682C233.488 18.8682 233.057 18.9333 232.691 19.0635C232.333 19.1855 232.032 19.3687 231.788 19.6128C231.552 19.8569 231.373 20.154 231.25 20.5039C231.137 20.8538 231.071 21.2526 231.055 21.7002L230.347 21.4805C230.347 20.626 230.433 19.8407 230.604 19.1245C230.774 18.4002 231.023 17.7695 231.348 17.2324C231.682 16.6953 232.089 16.2803 232.569 15.9873C233.049 15.6943 233.598 15.5479 234.217 15.5479C234.412 15.5479 234.611 15.5641 234.815 15.5967C235.018 15.6211 235.185 15.6577 235.315 15.7065ZM236.048 22.5303V22.2739C236.048 21.3055 236.186 20.4144 236.463 19.6006C236.74 18.7786 237.142 18.0666 237.671 17.4644C238.2 16.8621 238.851 16.3942 239.625 16.0605C240.398 15.7188 241.285 15.5479 242.286 15.5479C243.287 15.5479 244.178 15.7188 244.959 16.0605C245.74 16.3942 246.395 16.8621 246.924 17.4644C247.461 18.0666 247.868 18.7786 248.145 19.6006C248.422 20.4144 248.56 21.3055 248.56 22.2739V22.5303C248.56 23.4906 248.422 24.3817 248.145 25.2036C247.868 26.0174 247.461 26.7295 246.924 27.3398C246.395 27.9421 245.744 28.41 244.971 28.7437C244.198 29.0773 243.311 29.2441 242.31 29.2441C241.309 29.2441 240.418 29.0773 239.637 28.7437C238.864 28.41 238.208 27.9421 237.671 27.3398C237.142 26.7295 236.74 26.0174 236.463 25.2036C236.186 24.3817 236.048 23.4906 236.048 22.5303ZM239.563 22.2739V22.5303C239.563 23.0837 239.612 23.6004 239.71 24.0806C239.808 24.5607 239.962 24.9839 240.174 25.3501C240.394 25.7082 240.678 25.9889 241.028 26.1924C241.378 26.3958 241.806 26.4976 242.31 26.4976C242.798 26.4976 243.217 26.3958 243.567 26.1924C243.917 25.9889 244.198 25.7082 244.41 25.3501C244.621 24.9839 244.776 24.5607 244.874 24.0806C244.979 23.6004 245.032 23.0837 245.032 22.5303V22.2739C245.032 21.7368 244.979 21.2323 244.874 20.7603C244.776 20.2801 244.617 19.8569 244.397 19.4907C244.186 19.1164 243.905 18.8234 243.555 18.6118C243.205 18.4002 242.782 18.2944 242.286 18.2944C241.789 18.2944 241.366 18.4002 241.016 18.6118C240.674 18.8234 240.394 19.1164 240.174 19.4907C239.962 19.8569 239.808 20.2801 239.71 20.7603C239.612 21.2323 239.563 21.7368 239.563 22.2739Z" fill="#E1E1E6"/>
</svg>
